<?xml version="1.0" encoding="UTF-8" standalone="no" ?>
<!DOCTYPE svg PUBLIC "-//W3C//DTD SVG 1.1//EN" "http://www.w3.org/Graphics/SVG/1.1/DTD/svg11.dtd">
<svg xmlns="http://www.w3.org/2000/svg" xmlns:xlink="http://www.w3.org/1999/xlink" version="1.1" width="500" height="500" viewBox="0 0 500 500" xml:space="preserve">
<desc>Created with Fabric.js 3.6.3</desc>
<defs>
</defs>
<g transform="matrix(4.923912201287166 0 0 4.923912201287166 250 250)"  >
<g style=""   >
		<g transform="matrix(1 0 0 1 13.650000000000006 3.54999999999999)"  >
<linearGradient id="SVGID_21576" gradientUnits="userSpaceOnUse" gradientTransform="matrix(1 0 0 1 36.30000000000001 30.599999999999987)"  x1="0" y1="0" x2="120" y2="120">
<stop offset="0%" style="stop-color:rgb(143,94,37);stop-opacity: 1"/>
<stop offset="50%" style="stop-color:rgb(251,244,161);stop-opacity: 1"/>
<stop offset="100%" style="stop-color:rgb(143,94,37);stop-opacity: 1"/>
</linearGradient>
<path style="stroke: none; stroke-width: 1; stroke-dasharray: none; stroke-linecap: butt; stroke-dashoffset: 0; stroke-linejoin: miter; stroke-miterlimit: 4; fill: url(#SVGID_21576); fill-rule: nonzero; opacity: 1;"  transform=" translate(-73.15, -63.04999999999999)" d="M 110 60 c 0 12.1 -6.1 22.9 -15.4 29.3 c -1 0.7 -2.1 1.4 -3.3 2 c -3.2 1.7 -6.7 3 -10.3 3.6 c -1.2 0.2 -2.4 0.4 -3.6 0.5 c -1 0.1 -1.9 0.1 -2.9 0.1 H 45.5 c -1 0 -2 -0.1 -2.9 -0.1 c -2.6 -2.1 -4.7 -4.7 -6.3 -7.6 c 2.9 1 6 1.5 9.3 1.5 h 28.9 c 3.2 0 6.3 -0.5 9.3 -1.5 c 1 -0.3 2 -0.7 2.9 -1.2 c 3.1 -1.4 5.9 -3.4 8.3 -5.7 c 0.9 -0.9 1.7 -1.8 2.5 -2.8 c 4 -5 6.4 -11.3 6.4 -18.2 s -2.4 -13.2 -6.4 -18.2 c -0.4 -3.9 -1.4 -7.6 -2.9 -11.1 C 103.9 37.1 110 47.9 110 60 z" stroke-linecap="round" />
</g>
		<g transform="matrix(1 0 0 1 -2.6000000000000014 13.650000000000006)"  >
<linearGradient id="SVGID_21577" gradientUnits="userSpaceOnUse" gradientTransform="matrix(1 0 0 1 24.499999999999993 36.30000000000001)"  x1="0" y1="0" x2="120" y2="120">
<stop offset="0%" style="stop-color:rgb(143,94,37);stop-opacity: 1"/>
<stop offset="50%" style="stop-color:rgb(251,244,161);stop-opacity: 1"/>
<stop offset="100%" style="stop-color:rgb(143,94,37);stop-opacity: 1"/>
</linearGradient>
<path style="stroke: none; stroke-width: 1; stroke-dasharray: none; stroke-linecap: butt; stroke-dashoffset: 0; stroke-linejoin: miter; stroke-miterlimit: 4; fill: url(#SVGID_21577); fill-rule: nonzero; opacity: 1;"  transform=" translate(-56.9, -73.15)" d="M 89.3 94.6 C 82.9 103.9 72.1 110 60 110 s -22.9 -6.1 -29.3 -15.4 c -0.7 -1 -1.4 -2.1 -2 -3.3 c -1.7 -3.2 -3 -6.7 -3.6 -10.3 c -0.2 -1.2 -0.4 -2.4 -0.5 -3.6 c -0.1 -1 -0.1 -1.9 -0.1 -2.9 V 45.5 c 0 -1 0.1 -2 0.1 -2.9 c 2.1 -2.6 4.7 -4.7 7.6 -6.3 c -1 2.9 -1.5 6 -1.5 9.3 v 28.9 c 0 3.2 0.5 6.3 1.5 9.3 c 0.3 1 0.7 2 1.2 2.9 c 1.4 3.1 3.4 5.9 5.7 8.3 c 0.9 0.9 1.8 1.7 2.8 2.5 c 5 4 11.3 6.4 18.2 6.4 s 13.2 -2.4 18.2 -6.4 C 82.1 97 85.8 96 89.3 94.6 z" stroke-linecap="round" />
</g>
		<g transform="matrix(1 0 0 1 3.5500000000000043 -12.699999999999996)"  >
<linearGradient id="SVGID_21578" gradientUnits="userSpaceOnUse" gradientTransform="matrix(1 0 0 1 30.6 10)"  x1="0" y1="0" x2="120" y2="120">
<stop offset="0%" style="stop-color:rgb(143,94,37);stop-opacity: 1"/>
<stop offset="50%" style="stop-color:rgb(251,244,161);stop-opacity: 1"/>
<stop offset="100%" style="stop-color:rgb(143,94,37);stop-opacity: 1"/>
</linearGradient>
<path style="stroke: none; stroke-width: 1; stroke-dasharray: none; stroke-linecap: butt; stroke-dashoffset: 0; stroke-linejoin: miter; stroke-miterlimit: 4; fill: url(#SVGID_21578); fill-rule: nonzero; opacity: 1;"  transform=" translate(-63.050000000000004, -46.800000000000004)" d="M 95.5 45.5 v 28.9 c 0 1 -0.1 2 -0.1 2.9 c -2.1 2.6 -4.7 4.7 -7.6 6.3 c 1 -2.9 1.5 -6 1.5 -9.3 V 45.5 c 0 -3.2 -0.5 -6.3 -1.5 -9.3 c -0.3 -1 -0.7 -2 -1.2 -2.9 c -1.4 -3.1 -3.4 -5.9 -5.7 -8.3 c -0.9 -0.9 -1.8 -1.7 -2.8 -2.5 c -5 -4 -11.3 -6.4 -18.2 -6.4 s -13.2 2.4 -18.2 6.4 c -3.9 0.4 -7.6 1.4 -11.1 2.9 C 37.1 16.1 47.9 10 60 10 s 22.9 6.1 29.3 15.4 c 0.7 1 1.4 2.1 2 3.3 c 1.7 3.2 3 6.7 3.6 10.3 c 0.2 1.2 0.4 2.4 0.5 3.6 C 95.5 43.6 95.5 44.5 95.5 45.5 z" stroke-linecap="round" />
</g>
		<g transform="matrix(1 0 0 1 -12.649999999999999 -2.5500000000000043)"  >
<linearGradient id="SVGID_21579" gradientUnits="userSpaceOnUse" gradientTransform="matrix(1 0 0 1 10 24.499999999999993)"  x1="0" y1="0" x2="120" y2="120">
<stop offset="0%" style="stop-color:rgb(143,94,37);stop-opacity: 1"/>
<stop offset="50%" style="stop-color:rgb(251,244,161);stop-opacity: 1"/>
<stop offset="100%" style="stop-color:rgb(143,94,37);stop-opacity: 1"/>
</linearGradient>
<path style="stroke: none; stroke-width: 1; stroke-dasharray: none; stroke-linecap: butt; stroke-dashoffset: 0; stroke-linejoin: miter; stroke-miterlimit: 4; fill: url(#SVGID_21579); fill-rule: nonzero; opacity: 1;"  transform=" translate(-46.85, -56.949999999999996)" d="M 83.7 32.2 c -2.9 -1 -6 -1.5 -9.3 -1.5 H 45.5 c -3.2 0 -6.3 0.5 -9.3 1.5 c -1 0.3 -2 0.7 -2.9 1.2 c -3.1 1.4 -5.9 3.4 -8.3 5.7 c -0.9 0.9 -1.7 1.8 -2.5 2.8 c -4 5 -6.4 11.3 -6.4 18.2 s 2.4 13.2 6.4 18.2 c 0.4 3.9 1.4 7.6 2.9 11.1 C 16.1 82.9 10 72.1 10 60 s 6.1 -22.9 15.4 -29.3 c 1 -0.7 2.1 -1.4 3.3 -2 c 3.2 -1.7 6.7 -3 10.3 -3.6 c 1.2 -0.2 2.4 -0.4 3.6 -0.5 c 1 -0.1 1.9 -0.1 2.9 -0.1 h 28.9 c 1 0 2 0.1 2.9 0.1 C 79.9 26.7 82.1 29.3 83.7 32.2 z" stroke-linecap="round" />
</g>
</g>
</g>
</svg>